<?xml version="1.0" encoding="UTF-8"?>
<!DOCTYPE score-partwise PUBLIC "-//Recordare//DTD MusicXML 3.0 Partwise//EN" "http://www.musicxml.org/dtds/partwise.dtd">
<score-partwise>
  <work>
    <work-title>An Affair to Remember</work-title>
    </work>
  <identification>
    <creator type="composer">Harry Warren</creator>
    <creator type="lyricist">Adamson, McCarey</creator>
    <encoding>
      <software>MuseScore 2.0.2</software>
      <encoding-date>2016-06-05</encoding-date>
      <supports element="accidental" type="yes"/>
      <supports element="beam" type="yes"/>
      <supports element="print" attribute="new-page" type="yes" value="yes"/>
      <supports element="print" attribute="new-system" type="yes" value="yes"/>
      <supports element="stem" type="yes"/>
      </encoding>
    </identification>
  <defaults>
    <scaling>
      <millimeters>6.4</millimeters>
      <tenths>40</tenths>
      </scaling>
    <page-layout>
      <page-height>1855.81</page-height>
      <page-width>1312.87</page-width>
      <page-margins type="even">
        <left-margin>62.5</left-margin>
        <right-margin>62.5</right-margin>
        <top-margin>62.5</top-margin>
        <bottom-margin>125</bottom-margin>
        </page-margins>
      <page-margins type="odd">
        <left-margin>62.5</left-margin>
        <right-margin>62.5</right-margin>
        <top-margin>62.5</top-margin>
        <bottom-margin>125</bottom-margin>
        </page-margins>
      </page-layout>
    <word-font font-family="MuseJazz" font-size="11"/>
    <lyric-font font-family="MuseJazz" font-size="11"/>
    </defaults>
  <credit page="1">
    <credit-words default-x="656.437" default-y="1793.31" justify="center" valign="top" font-size="28">An Affair to Remember</credit-words>
    </credit>
  <credit page="1">
    <credit-words default-x="1250.37" default-y="1723.31" justify="right" valign="bottom" font-size="12">Harry Warren</credit-words>
    </credit>
  <credit page="1">
    <credit-words default-x="62.5" default-y="1723.31" justify="left" valign="bottom" font-size="12">Adamson, McCarey</credit-words>
    </credit>
  <credit page="1">
    <credit-words default-x="656.437" default-y="1730.81" justify="center" valign="top" font-size="10">(Standard key is F)</credit-words>
    </credit>
  <part-list>
    <score-part id="P1">
      <part-name>Piano</part-name>
      <part-abbreviation>Pno.</part-abbreviation>
      <score-instrument id="P1-I1">
        <instrument-name>Piano</instrument-name>
        </score-instrument>
      <midi-device id="P1-I1" port="1"></midi-device>
      <midi-instrument id="P1-I1">
        <midi-channel>1</midi-channel>
        <midi-program>1</midi-program>
        <volume>78.7402</volume>
        <pan>0</pan>
        </midi-instrument>
      </score-part>
    </part-list>
  <part id="P1">
    <measure number="0" implicit="yes" width="134.36">
      <print>
        <system-layout>
          <system-margins>
            <left-margin>-0.00</left-margin>
            <right-margin>-0.00</right-margin>
            </system-margins>
          <top-system-distance>155.42</top-system-distance>
          </system-layout>
        </print>
      <attributes>
        <divisions>1</divisions>
        <key>
          <fifths>-1</fifths>
          </key>
        <time symbol="cut">
          <beats>2</beats>
          <beat-type>2</beat-type>
          </time>
        <clef>
          <sign>G</sign>
          <line>2</line>
          </clef>
        </attributes>
      <note default-x="93.75" default-y="-50.00">
        <pitch>
          <step>C</step>
          <octave>4</octave>
          </pitch>
        <duration>1</duration>
        <voice>1</voice>
        <type>quarter</type>
        <stem>up</stem>
        <lyric number="1">
          <syllabic>single</syllabic>
          <text>Our</text>
          </lyric>
        <lyric number="2">
          <syllabic>single</syllabic>
          <text font-style="italic">Ce</text>
          </lyric>
        </note>
      </measure>
    <measure number="1" width="109.03">
      <harmony print-frame="no">
        <root>
          <root-step>F</root-step>
          </root>
        <kind>major</kind>
        </harmony>
      <note default-x="19.86" default-y="-25.00">
        <pitch>
          <step>A</step>
          <octave>4</octave>
          </pitch>
        <duration>3</duration>
        <voice>1</voice>
        <type>half</type>
        <dot/>
        <stem>up</stem>
        <lyric number="1">
          <syllabic>single</syllabic>
          <text>love</text>
          </lyric>
        <lyric number="2">
          <syllabic>single</syllabic>
          <text font-style="italic">bel</text>
          </lyric>
        </note>
      <note default-x="77.89" default-y="-50.00">
        <pitch>
          <step>C</step>
          <octave>4</octave>
          </pitch>
        <duration>1</duration>
        <voice>1</voice>
        <type>quarter</type>
        <stem>up</stem>
        <lyric number="1">
          <syllabic>begin</syllabic>
          <text>af</text>
          </lyric>
        <lyric number="2">
          <syllabic>begin</syllabic>
          <text font-style="italic">a</text>
          </lyric>
        </note>
      </measure>
    <measure number="2" width="143.13">
      <harmony print-frame="no">
        <root>
          <root-step>D</root-step>
          </root>
        <kind use-symbols="yes">diminished</kind>
        </harmony>
      <note default-x="24.96" default-y="-45.00">
        <pitch>
          <step>D</step>
          <octave>4</octave>
          </pitch>
        <duration>2</duration>
        <voice>1</voice>
        <type>half</type>
        <stem>up</stem>
        <lyric number="1">
          <syllabic>end</syllabic>
          <text>fair</text>
          </lyric>
        <lyric number="2">
          <syllabic>end</syllabic>
          <text font-style="italic">mour,</text>
          </lyric>
        </note>
      <note default-x="76.98" default-y="-45.00">
        <pitch>
          <step>D</step>
          <octave>4</octave>
          </pitch>
        <duration>1</duration>
        <voice>1</voice>
        <type>quarter</type>
        <stem>up</stem>
        <lyric number="1">
          <syllabic>single</syllabic>
          <text>is</text>
          </lyric>
        <lyric number="2">
          <syllabic>single</syllabic>
          <text font-style="italic">qui</text>
          </lyric>
        </note>
      <note default-x="109.25" default-y="-40.00">
        <pitch>
          <step>E</step>
          <octave>4</octave>
          </pitch>
        <duration>1</duration>
        <voice>1</voice>
        <type>quarter</type>
        <stem>up</stem>
        <lyric number="1">
          <syllabic>single</syllabic>
          <text>a</text>
          </lyric>
        <lyric number="2">
          <syllabic>single</syllabic>
          <text font-style="italic">ne</text>
          </lyric>
        </note>
      </measure>
    <measure number="3" width="137.09">
      <harmony print-frame="no">
        <root>
          <root-step>C</root-step>
          </root>
        <kind>major</kind>
        </harmony>
      <note default-x="23.86" default-y="-30.00">
        <pitch>
          <step>G</step>
          <octave>4</octave>
          </pitch>
        <duration>3</duration>
        <voice>1</voice>
        <type>half</type>
        <dot/>
        <stem>up</stem>
        <lyric number="1">
          <syllabic>begin</syllabic>
          <text>won</text>
          </lyric>
        <lyric number="2">
          <syllabic>single</syllabic>
          <text font-style="italic">peut</text>
          </lyric>
        </note>
      <note default-x="97.51" default-y="-50.00">
        <pitch>
          <step>C</step>
          <octave>4</octave>
          </pitch>
        <duration>1</duration>
        <voice>1</voice>
        <type>quarter</type>
        <stem>up</stem>
        <lyric number="1">
          <syllabic>end</syllabic>
          <text>drous</text>
          </lyric>
        <lyric number="2">
          <syllabic>begin</syllabic>
          <text font-style="italic">mou</text>
          </lyric>
        </note>
      </measure>
    <measure number="4" width="145.46">
      <harmony print-frame="no">
        <root>
          <root-step>C</root-step>
          </root>
        <kind text="mi">minor</kind>
        </harmony>
      <note default-x="27.63" default-y="-50.00">
        <pitch>
          <step>C</step>
          <octave>4</octave>
          </pitch>
        <duration>3</duration>
        <voice>1</voice>
        <type>half</type>
        <dot/>
        <stem>up</stem>
        <lyric number="1">
          <syllabic>single</syllabic>
          <text>thing,</text>
          </lyric>
        <lyric number="2">
          <syllabic>end</syllabic>
          <text font-style="italic">rir,</text>
          </lyric>
        </note>
      <note default-x="104.60" default-y="-50.00">
        <pitch>
          <step>C</step>
          <octave>4</octave>
          </pitch>
        <duration>1</duration>
        <voice>1</voice>
        <type>quarter</type>
        <stem>up</stem>
        <lyric number="1">
          <syllabic>single</syllabic>
          <text>That</text>
          </lyric>
        <lyric number="2">
          <syllabic>begin</syllabic>
          <text font-style="italic">Se</text>
          </lyric>
        </note>
      </measure>
    <measure number="5" width="129.54">
      <harmony print-frame="no">
        <root>
          <root-step>G</root-step>
          </root>
        <kind text="m">minor</kind>
        </harmony>
      <note default-x="22.14" default-y="-20.00">
        <pitch>
          <step>B</step>
          <alter>-1</alter>
          <octave>4</octave>
          </pitch>
        <duration>3</duration>
        <voice>1</voice>
        <type>half</type>
        <dot/>
        <stem>down</stem>
        <lyric number="1">
          <syllabic>single</syllabic>
          <text>we'll</text>
          </lyric>
        <lyric number="2">
          <syllabic>end</syllabic>
          <text font-style="italic">ra</text>
          </lyric>
        </note>
      <note default-x="92.02" default-y="-45.00">
        <pitch>
          <step>D</step>
          <octave>4</octave>
          </pitch>
        <duration>1</duration>
        <voice>1</voice>
        <type>quarter</type>
        <stem>up</stem>
        <lyric number="1">
          <syllabic>begin</syllabic>
          <text>re</text>
          </lyric>
        <lyric number="2">
          <syllabic>single</syllabic>
          <text font-style="italic">pour</text>
          </lyric>
        </note>
      </measure>
    <measure number="6" width="149.82">
      <harmony print-frame="no">
        <root>
          <root-step>C</root-step>
          </root>
        <kind text="7">dominant</kind>
        </harmony>
      <note default-x="22.97" default-y="-40.00">
        <pitch>
          <step>E</step>
          <octave>4</octave>
          </pitch>
        <duration>2</duration>
        <voice>1</voice>
        <type>half</type>
        <stem>up</stem>
        <lyric number="1">
          <syllabic>end</syllabic>
          <text>joice</text>
          </lyric>
        <lyric number="2">
          <syllabic>single</syllabic>
          <text font-style="italic">nous</text>
          </lyric>
        </note>
      <note default-x="78.74" default-y="-35.00">
        <pitch>
          <step>F</step>
          <octave>4</octave>
          </pitch>
        <duration>1</duration>
        <voice>1</voice>
        <type>quarter</type>
        <stem>up</stem>
        <lyric number="1">
          <syllabic>single</syllabic>
          <text>in</text>
          </lyric>
        <lyric number="2">
          <syllabic>single</syllabic>
          <text font-style="italic">un</text>
          </lyric>
        </note>
      <note default-x="113.36" default-y="-30.00">
        <pitch>
          <step>G</step>
          <octave>4</octave>
          </pitch>
        <duration>1</duration>
        <voice>1</voice>
        <type>quarter</type>
        <stem>up</stem>
        <lyric number="1">
          <syllabic>begin</syllabic>
          <text>re</text>
          </lyric>
        <lyric number="2">
          <syllabic>single</syllabic>
          <text font-style="italic">doux</text>
          </lyric>
        </note>
      </measure>
    <measure number="7" width="121.32">
      <harmony print-frame="no">
        <root>
          <root-step>F</root-step>
          </root>
        <kind>major</kind>
        </harmony>
      <note default-x="23.27" default-y="-15.00">
        <pitch>
          <step>C</step>
          <octave>5</octave>
          </pitch>
        <duration>3</duration>
        <voice>1</voice>
        <type>half</type>
        <dot/>
        <stem>down</stem>
        <lyric number="1">
          <syllabic>middle</syllabic>
          <text>mem</text>
          </lyric>
        <lyric number="2">
          <syllabic>begin</syllabic>
          <text font-style="italic">sou</text>
          </lyric>
        </note>
      <note default-x="87.17" default-y="-35.00">
        <pitch>
          <step>F</step>
          <octave>4</octave>
          </pitch>
        <duration>1</duration>
        <voice>1</voice>
        <type>quarter</type>
        <stem>up</stem>
        <lyric number="1">
          <syllabic>middle</syllabic>
          <text>ber</text>
          </lyric>
        <lyric number="2">
          <syllabic>middle</syllabic>
          <text font-style="italic">ve</text>
          </lyric>
        </note>
      </measure>
    <measure number="8" width="118.13">
      <note default-x="18.40" default-y="-35.00">
        <pitch>
          <step>F</step>
          <octave>4</octave>
          </pitch>
        <duration>3</duration>
        <voice>1</voice>
        <type>half</type>
        <dot/>
        <stem>up</stem>
        <lyric number="1">
          <syllabic>end</syllabic>
          <text>ing.</text>
          </lyric>
        <lyric number="2">
          <syllabic>end</syllabic>
          <text font-style="italic">nir.</text>
          </lyric>
        </note>
      <note default-x="83.40" default-y="-35.00">
        <pitch>
          <step>F</step>
          <octave>4</octave>
          </pitch>
        <duration>1</duration>
        <voice>1</voice>
        <type>quarter</type>
        <stem>up</stem>
        <lyric number="1">
          <syllabic>single</syllabic>
          <text>Our</text>
          </lyric>
        <lyric number="2">
          <syllabic>begin</syllabic>
          <text font-style="italic">Pro</text>
          </lyric>
        </note>
      </measure>
    <measure number="9" width="180.89">
      <print new-system="yes">
        <system-layout>
          <system-margins>
            <left-margin>-0.00</left-margin>
            <right-margin>-0.00</right-margin>
            </system-margins>
          <system-distance>166.46</system-distance>
          </system-layout>
        </print>
      <harmony print-frame="no">
        <root>
          <root-step>D</root-step>
          </root>
        <kind text="mi7">minor-seventh</kind>
        </harmony>
      <note default-x="79.66" default-y="-15.00">
        <pitch>
          <step>C</step>
          <octave>5</octave>
          </pitch>
        <duration>3</duration>
        <voice>1</voice>
        <type>half</type>
        <dot/>
        <stem>down</stem>
        <lyric number="1">
          <syllabic>single</syllabic>
          <text>love</text>
          </lyric>
        <lyric number="2">
          <syllabic>end</syllabic>
          <text font-style="italic">messe</text>
          </lyric>
        </note>
      <note default-x="145.66" default-y="-25.00">
        <pitch>
          <step>A</step>
          <octave>4</octave>
          </pitch>
        <duration>1</duration>
        <voice>1</voice>
        <type>quarter</type>
        <stem>up</stem>
        <lyric number="1">
          <syllabic>single</syllabic>
          <text>was</text>
          </lyric>
        <lyric number="2">
          <syllabic>begin</syllabic>
          <text font-style="italic">ar</text>
          </lyric>
        </note>
      </measure>
    <measure number="10" width="154.54">
      <harmony print-frame="no">
        <root>
          <root-step>G</root-step>
          </root>
        <kind>major</kind>
        </harmony>
      <note default-x="18.27" default-y="-20.00">
        <pitch>
          <step>B</step>
          <octave>4</octave>
          </pitch>
        <duration>2</duration>
        <voice>1</voice>
        <type>half</type>
        <accidental>natural</accidental>
        <stem>down</stem>
        <lyric number="1">
          <syllabic>single</syllabic>
          <text>born</text>
          </lyric>
        <lyric number="2">
          <syllabic>end</syllabic>
          <text font-style="italic">dente</text>
          </lyric>
        </note>
      <note default-x="78.34" default-y="-15.00">
        <pitch>
          <step>C</step>
          <octave>5</octave>
          </pitch>
        <duration>1</duration>
        <voice>1</voice>
        <type>quarter</type>
        <stem>down</stem>
        <lyric number="1">
          <syllabic>single</syllabic>
          <text>with</text>
          </lyric>
        <lyric number="2">
          <syllabic>single</syllabic>
          <text font-style="italic">du</text>
          </lyric>
        </note>
      <note default-x="115.64" default-y="-10.00">
        <pitch>
          <step>D</step>
          <octave>5</octave>
          </pitch>
        <duration>1</duration>
        <voice>1</voice>
        <type>quarter</type>
        <stem>down</stem>
        <lyric number="1">
          <syllabic>single</syllabic>
          <text>our</text>
          </lyric>
        <lyric number="2">
          <syllabic>begin</syllabic>
          <text font-style="italic">pre</text>
          </lyric>
        </note>
      </measure>
    <measure number="11" width="138.84">
      <harmony print-frame="no">
        <root>
          <root-step>E</root-step>
          </root>
        <kind text="mi7">minor-seventh</kind>
        </harmony>
      <note default-x="25.62" default-y="-10.00">
        <pitch>
          <step>D</step>
          <octave>5</octave>
          </pitch>
        <duration>3</duration>
        <voice>1</voice>
        <type>half</type>
        <dot/>
        <stem>down</stem>
        <lyric number="1">
          <syllabic>single</syllabic>
          <text>first</text>
          </lyric>
        <lyric number="2">
          <syllabic>end</syllabic>
          <text font-style="italic">mier</text>
          </lyric>
        </note>
      <harmony print-frame="no">
        <root>
          <root-step>C</root-step>
          </root>
        <kind>major</kind>
        </harmony>
      <note default-x="99.55" default-y="-30.00">
        <pitch>
          <step>G</step>
          <octave>4</octave>
          </pitch>
        <duration>1</duration>
        <voice>1</voice>
        <type>quarter</type>
        <stem>up</stem>
        <lyric number="1">
          <syllabic>begin</syllabic>
          <text>em</text>
          </lyric>
        <lyric number="2">
          <syllabic>begin</syllabic>
          <text font-style="italic">bai</text>
          </lyric>
        </note>
      </measure>
    <measure number="12" width="171.40">
      <harmony print-frame="no">
        <root>
          <root-step>A</root-step>
          </root>
        <kind text="mi7">minor-seventh</kind>
        </harmony>
      <note default-x="28.20" default-y="-30.00">
        <pitch>
          <step>G</step>
          <octave>4</octave>
          </pitch>
        <duration>2</duration>
        <voice>1</voice>
        <type>half</type>
        <stem>up</stem>
        <lyric number="1">
          <syllabic>end</syllabic>
          <text>brace,</text>
          </lyric>
        <lyric number="2">
          <syllabic>end</syllabic>
          <text font-style="italic">ser,</text>
          </lyric>
        </note>
      <note default-x="91.35" default-y="-25.00">
        <pitch>
          <step>A</step>
          <octave>4</octave>
          </pitch>
        <duration>1</duration>
        <voice>1</voice>
        <type>quarter</type>
        <stem>up</stem>
        <lyric number="1">
          <syllabic>single</syllabic>
          <text>And</text>
          </lyric>
        <lyric number="2">
          <syllabic>single</syllabic>
          <text font-style="italic">Qui</text>
          </lyric>
        </note>
      <note default-x="130.57" default-y="-20.00">
        <pitch>
          <step>B</step>
          <octave>4</octave>
          </pitch>
        <duration>1</duration>
        <voice>1</voice>
        <type>quarter</type>
        <accidental>natural</accidental>
        <stem>down</stem>
        <lyric number="1">
          <syllabic>single</syllabic>
          <text>a</text>
          </lyric>
        <lyric number="2">
          <syllabic>single</syllabic>
          <text font-style="italic">nous</text>
          </lyric>
        </note>
      </measure>
    <measure number="13" width="126.89">
      <harmony print-frame="no">
        <root>
          <root-step>D</root-step>
          </root>
        <kind text="mi7">minor-seventh</kind>
        </harmony>
      <note default-x="24.91" default-y="-15.00">
        <pitch>
          <step>C</step>
          <octave>5</octave>
          </pitch>
        <duration>3</duration>
        <voice>1</voice>
        <type>half</type>
        <dot/>
        <stem>down</stem>
        <lyric number="1">
          <syllabic>single</syllabic>
          <text>page</text>
          </lyric>
        <lyric number="2">
          <syllabic>single</syllabic>
          <text font-style="italic">lie,</text>
          </lyric>
        </note>
      <note default-x="91.12" default-y="-35.00">
        <pitch>
          <step>F</step>
          <octave>4</octave>
          </pitch>
        <duration>1</duration>
        <voice>1</voice>
        <type>quarter</type>
        <stem>up</stem>
        <lyric number="1">
          <syllabic>single</syllabic>
          <text>was</text>
          </lyric>
        <lyric number="2">
          <syllabic>single</syllabic>
          <text font-style="italic">tous</text>
          </lyric>
        </note>
      </measure>
    <measure number="14" width="156.40">
      <harmony print-frame="no">
        <root>
          <root-step>G</root-step>
          </root>
        <kind text="9">dominant-ninth</kind>
        </harmony>
      <note default-x="24.00" default-y="-35.00">
        <pitch>
          <step>F</step>
          <octave>4</octave>
          </pitch>
        <duration>2</duration>
        <voice>1</voice>
        <type>half</type>
        <stem>up</stem>
        <lyric number="1">
          <syllabic>single</syllabic>
          <text>torn</text>
          </lyric>
        <lyric number="2">
          <syllabic>single</syllabic>
          <text font-style="italic">deux,</text>
          </lyric>
        </note>
      <note default-x="82.35" default-y="-40.00">
        <pitch>
          <step>E</step>
          <octave>4</octave>
          </pitch>
        <duration>1</duration>
        <voice>1</voice>
        <type>quarter</type>
        <stem>up</stem>
        <lyric number="1">
          <syllabic>single</syllabic>
          <text>out</text>
          </lyric>
        <lyric number="2">
          <syllabic>single</syllabic>
          <text font-style="italic">pour</text>
          </lyric>
        </note>
      <harmony print-frame="no">
        <root>
          <root-step>G</root-step>
          </root>
        <kind text="7">dominant</kind>
        </harmony>
      <note default-x="118.57" default-y="-35.00">
        <pitch>
          <step>F</step>
          <octave>4</octave>
          </pitch>
        <duration>1</duration>
        <voice>1</voice>
        <type>quarter</type>
        <stem>up</stem>
        <lyric number="1">
          <syllabic>single</syllabic>
          <text>of</text>
          </lyric>
        <lyric number="2">
          <syllabic>begin</syllabic>
          <text font-style="italic">l'é</text>
          </lyric>
        </note>
      </measure>
    <measure number="15" width="117.17">
      <harmony print-frame="no">
        <root>
          <root-step>G</root-step>
          </root>
        <kind text="mi7">minor-seventh</kind>
        </harmony>
      <note default-x="23.24" default-y="-30.00">
        <pitch>
          <step>G</step>
          <octave>4</octave>
          </pitch>
        <duration>3</duration>
        <voice>1</voice>
        <type>half</type>
        <dot/>
        <stem>up</stem>
        <lyric number="1">
          <syllabic>single</syllabic>
          <text>time</text>
          </lyric>
        <lyric number="2">
          <syllabic>middle</syllabic>
          <text font-style="italic">ter</text>
          </lyric>
        </note>
      <note default-x="84.41" default-y="-45.00">
        <pitch>
          <step>D</step>
          <octave>4</octave>
          </pitch>
        <duration>1</duration>
        <voice>1</voice>
        <type>quarter</type>
        <stem>up</stem>
        <lyric number="1">
          <syllabic>single</syllabic>
          <text>and</text>
          </lyric>
        <lyric number="2">
          <syllabic>middle</syllabic>
          <text font-style="italic">nit</text>
          </lyric>
        </note>
      </measure>
    <measure number="16" width="141.74">
      <harmony print-frame="no">
        <root>
          <root-step>C</root-step>
          </root>
        <kind text="9">dominant-ninth</kind>
        </harmony>
      <note default-x="29.35" default-y="-45.00">
        <pitch>
          <step>D</step>
          <octave>4</octave>
          </pitch>
        <duration>3</duration>
        <voice>1</voice>
        <type>half</type>
        <dot/>
        <stem>up</stem>
        <lyric number="1">
          <syllabic>single</syllabic>
          <text>space.</text>
          </lyric>
        <lyric number="2">
          <syllabic>end</syllabic>
          <text font-style="italic">té.</text>
          </lyric>
        </note>
      <harmony print-frame="no">
        <root>
          <root-step>C</root-step>
          </root>
        <kind use-symbols="yes">augmented</kind>
        </harmony>
      <note default-x="99.69" default-y="-50.00">
        <pitch>
          <step>C</step>
          <octave>4</octave>
          </pitch>
        <duration>1</duration>
        <voice>1</voice>
        <type>quarter</type>
        <stem>up</stem>
        <lyric number="1">
          <syllabic>single</syllabic>
          <text>Our</text>
          </lyric>
        <lyric number="2">
          <syllabic>single</syllabic>
          <text font-style="italic">D'un</text>
          </lyric>
        </note>
      <barline location="right">
        <bar-style>light-light</bar-style>
        </barline>
      </measure>
    <measure number="17" width="180.91">
      <print new-system="yes">
        <system-layout>
          <system-margins>
            <left-margin>-0.00</left-margin>
            <right-margin>-0.00</right-margin>
            </system-margins>
          <system-distance>166.46</system-distance>
          </system-layout>
        </print>
      <harmony print-frame="no">
        <root>
          <root-step>F</root-step>
          </root>
        <kind>major</kind>
        </harmony>
      <note default-x="71.07" default-y="-35.00">
        <pitch>
          <step>F</step>
          <octave>4</octave>
          </pitch>
        <duration>3</duration>
        <voice>1</voice>
        <type>half</type>
        <dot/>
        <stem>up</stem>
        <lyric number="1">
          <syllabic>single</syllabic>
          <text>love</text>
          </lyric>
        <lyric number="2">
          <syllabic>single</syllabic>
          <text font-style="italic">bel</text>
          </lyric>
        </note>
      <note default-x="142.76" default-y="-50.00">
        <pitch>
          <step>C</step>
          <octave>4</octave>
          </pitch>
        <duration>1</duration>
        <voice>1</voice>
        <type>quarter</type>
        <stem>up</stem>
        <lyric number="1">
          <syllabic>begin</syllabic>
          <text>af</text>
          </lyric>
        <lyric number="2">
          <syllabic>begin</syllabic>
          <text font-style="italic">a</text>
          </lyric>
        </note>
      </measure>
    <measure number="18" width="196.09">
      <harmony print-frame="no">
        <root>
          <root-step>F</root-step>
          </root>
        <kind use-symbols="yes">diminished</kind>
        </harmony>
      <note default-x="25.67" default-y="-45.00">
        <pitch>
          <step>D</step>
          <octave>4</octave>
          </pitch>
        <duration>2</duration>
        <voice>1</voice>
        <type>half</type>
        <stem>up</stem>
        <lyric number="1">
          <syllabic>end</syllabic>
          <text>fair,</text>
          </lyric>
        <lyric number="2">
          <syllabic>end</syllabic>
          <text font-style="italic">mour</text>
          </lyric>
        </note>
      <note default-x="100.91" default-y="-40.00">
        <pitch>
          <step>E</step>
          <octave>4</octave>
          </pitch>
        <duration>1</duration>
        <voice>1</voice>
        <type>quarter</type>
        <stem>up</stem>
        <lyric number="1">
          <syllabic>single</syllabic>
          <text>may</text>
          </lyric>
        <lyric number="2">
          <syllabic>begin</syllabic>
          <text font-style="italic">tou</text>
          </lyric>
        </note>
      <note default-x="147.70" default-y="-35.00">
        <pitch>
          <step>F</step>
          <octave>4</octave>
          </pitch>
        <duration>1</duration>
        <voice>1</voice>
        <type>quarter</type>
        <stem>up</stem>
        <lyric number="1">
          <syllabic>single</syllabic>
          <text>it</text>
          </lyric>
        <lyric number="2">
          <syllabic>end</syllabic>
          <text font-style="italic">jours</text>
          </lyric>
        </note>
      </measure>
    <measure number="19" width="155.30">
      <harmony print-frame="no">
        <root>
          <root-step>C</root-step>
          </root>
        <kind>major</kind>
        </harmony>
      <note default-x="23.59" default-y="-30.00">
        <pitch>
          <step>G</step>
          <octave>4</octave>
          </pitch>
        <duration>3</duration>
        <voice>1</voice>
        <type>half</type>
        <dot/>
        <stem>up</stem>
        <lyric number="1">
          <syllabic>begin</syllabic>
          <text>al</text>
          </lyric>
        <lyric number="2">
          <syllabic>begin</syllabic>
          <text font-style="italic">gran</text>
          </lyric>
        </note>
      <note default-x="109.74" default-y="-50.00">
        <pitch>
          <step>C</step>
          <octave>4</octave>
          </pitch>
        <duration>1</duration>
        <voice>1</voice>
        <type>quarter</type>
        <stem>up</stem>
        <lyric number="1">
          <syllabic>end</syllabic>
          <text>ways</text>
          </lyric>
        <lyric number="2">
          <syllabic>middle</syllabic>
          <text font-style="italic">dis</text>
          </lyric>
        </note>
      </measure>
    <measure number="20" width="146.47">
      <harmony print-frame="no">
        <root>
          <root-step>C</root-step>
          </root>
        <kind text="mi">minor</kind>
        </harmony>
      <note default-x="24.57" default-y="-50.00">
        <pitch>
          <step>C</step>
          <octave>4</octave>
          </pitch>
        <duration>3</duration>
        <voice>1</voice>
        <type>half</type>
        <dot/>
        <stem>up</stem>
        <lyric number="1">
          <syllabic>single</syllabic>
          <text>be</text>
          </lyric>
        <lyric number="2">
          <syllabic>end</syllabic>
          <text font-style="italic">sant,</text>
          </lyric>
        </note>
      <note default-x="104.23" default-y="-50.00">
        <pitch>
          <step>C</step>
          <octave>4</octave>
          </pitch>
        <duration>1</duration>
        <voice>1</voice>
        <type>quarter</type>
        <stem>up</stem>
        <lyric number="1">
          <syllabic>single</syllabic>
          <text>A</text>
          </lyric>
        <lyric number="2">
          <syllabic>single</syllabic>
          <text font-style="italic">Qui</text>
          </lyric>
        </note>
      </measure>
    <measure number="21" width="146.46">
      <harmony print-frame="no">
        <root>
          <root-step>G</root-step>
          </root>
        <kind text="mi">minor</kind>
        </harmony>
      <note default-x="28.41" default-y="-20.00">
        <pitch>
          <step>B</step>
          <alter>-1</alter>
          <octave>4</octave>
          </pitch>
        <duration>3</duration>
        <voice>1</voice>
        <type>half</type>
        <dot/>
        <stem>down</stem>
        <lyric number="1">
          <syllabic>single</syllabic>
          <text>flame</text>
          </lyric>
        <lyric number="2">
          <syllabic>begin</syllabic>
          <text font-style="italic">dé</text>
          </lyric>
        </note>
      <note default-x="105.53" default-y="-45.00">
        <pitch>
          <step>D</step>
          <octave>4</octave>
          </pitch>
        <duration>1</duration>
        <voice>1</voice>
        <type>quarter</type>
        <stem>up</stem>
        <lyric number="1">
          <syllabic>single</syllabic>
          <text>to</text>
          </lyric>
        <lyric number="2">
          <syllabic>middle</syllabic>
          <text font-style="italic">fie</text>
          </lyric>
        </note>
      </measure>
    <measure number="22" width="194.13">
      <harmony print-frame="no">
        <root>
          <root-step>C</root-step>
          </root>
        <kind text="7">dominant</kind>
        </harmony>
      <note default-x="24.09" default-y="-40.00">
        <pitch>
          <step>E</step>
          <octave>4</octave>
          </pitch>
        <duration>2</duration>
        <voice>1</voice>
        <type>half</type>
        <stem>up</stem>
        <lyric number="1">
          <syllabic>single</syllabic>
          <text>burn</text>
          </lyric>
        <lyric number="2">
          <syllabic>end</syllabic>
          <text font-style="italic">ra</text>
          </lyric>
        </note>
      <note default-x="99.17" default-y="-35.00">
        <pitch>
          <step>F</step>
          <octave>4</octave>
          </pitch>
        <duration>1</duration>
        <voice>1</voice>
        <type>quarter</type>
        <stem>up</stem>
        <lyric number="1">
          <syllabic>single</syllabic>
          <text>through</text>
          </lyric>
        <lyric number="2">
          <syllabic>single</syllabic>
          <text font-style="italic">les</text>
          </lyric>
        </note>
      <note default-x="145.85" default-y="-30.00">
        <pitch>
          <step>G</step>
          <octave>4</octave>
          </pitch>
        <duration>1</duration>
        <voice>1</voice>
        <type>quarter</type>
        <stem>up</stem>
        <lyric number="1">
          <syllabic>begin</syllabic>
          <text>e</text>
          </lyric>
        <lyric number="2">
          <syllabic>begin</syllabic>
          <text font-style="italic">é</text>
          </lyric>
        </note>
      </measure>
    <measure number="23" width="168.52">
      <harmony print-frame="no">
        <root>
          <root-step>C</root-step>
          </root>
        <kind text="mi6">minor-sixth</kind>
        </harmony>
      <note default-x="36.12" default-y="-15.00">
        <pitch>
          <step>C</step>
          <octave>5</octave>
          </pitch>
        <duration>3</duration>
        <voice>1</voice>
        <type>half</type>
        <dot/>
        <stem>down</stem>
        <lyric number="1">
          <syllabic>middle</syllabic>
          <text>ter</text>
          </lyric>
        <lyric number="2">
          <syllabic>end</syllabic>
          <text font-style="italic">preuves</text>
          </lyric>
        </note>
      <note default-x="122.72" default-y="-40.00">
        <pitch>
          <step>E</step>
          <alter>-1</alter>
          <octave>4</octave>
          </pitch>
        <duration>1</duration>
        <voice>1</voice>
        <type>quarter</type>
        <accidental>flat</accidental>
        <stem>up</stem>
        <lyric number="1">
          <syllabic>middle</syllabic>
          <text>ni</text>
          </lyric>
        <lyric number="2">
          <syllabic>single</syllabic>
          <text font-style="italic">du</text>
          </lyric>
        </note>
      </measure>
    <measure number="24" width="353.97">
      <print new-system="yes">
        <system-layout>
          <system-margins>
            <left-margin>-0.00</left-margin>
            <right-margin>0.00</right-margin>
            </system-margins>
          <system-distance>166.46</system-distance>
          </system-layout>
        </print>
      <harmony print-frame="no">
        <root>
          <root-step>D</root-step>
          </root>
        <kind text="7">dominant</kind>
        <degree>
          <degree-value>9</degree-value>
          <degree-alter>-1</degree-alter>
          <degree-type>add</degree-type>
          </degree>
        </harmony>
      <harmony print-frame="no">
        <root>
          <root-step>D</root-step>
          </root>
        <kind text="7">dominant</kind>
        <degree>
          <degree-value>9</degree-value>
          <degree-alter>-1</degree-alter>
          <degree-type>add</degree-type>
          </degree>
        <degree>
          <degree-value>5</degree-value>
          <degree-alter>1</degree-alter>
          <degree-type>alter</degree-type>
          </degree>
        <offset>1</offset>
        </harmony>
      <harmony print-frame="no">
        <root>
          <root-step>D</root-step>
          </root>
        <kind text="7">dominant</kind>
        <degree>
          <degree-value>9</degree-value>
          <degree-alter>-1</degree-alter>
          <degree-type>add</degree-type>
          </degree>
        <degree>
          <degree-value>5</degree-value>
          <degree-alter>-1</degree-alter>
          <degree-type>alter</degree-type>
          </degree>
        <offset>2</offset>
        </harmony>
      <note default-x="82.74" default-y="-40.00">
        <pitch>
          <step>E</step>
          <alter>-1</alter>
          <octave>4</octave>
          </pitch>
        <duration>3</duration>
        <voice>1</voice>
        <type>half</type>
        <dot/>
        <accidental>flat</accidental>
        <stem>up</stem>
        <lyric number="1">
          <syllabic>end</syllabic>
          <text>ty.</text>
          </lyric>
        <lyric number="2">
          <syllabic>single</syllabic>
          <text font-style="italic">temps.</text>
          </lyric>
        </note>
      <harmony print-frame="no">
        <root>
          <root-step>D</root-step>
          </root>
        <kind text="7">dominant</kind>
        </harmony>
      <note default-x="291.13" default-y="-45.00">
        <pitch>
          <step>D</step>
          <octave>4</octave>
          </pitch>
        <duration>1</duration>
        <voice>1</voice>
        <type>quarter</type>
        <stem>up</stem>
        <lyric number="1">
          <syllabic>single</syllabic>
          <text>So,</text>
          </lyric>
        <lyric number="2">
          <syllabic>begin</syllabic>
          <text font-style="italic">Trou</text>
          </lyric>
        </note>
      </measure>
    <measure number="25" width="121.85">
      <harmony print-frame="no">
        <root>
          <root-step>G</root-step>
          </root>
        <kind text="mi">minor</kind>
        </harmony>
      <note default-x="23.45" default-y="-15.00">
        <pitch>
          <step>C</step>
          <octave>5</octave>
          </pitch>
        <duration>3</duration>
        <voice>1</voice>
        <type>half</type>
        <dot/>
        <stem>down</stem>
        <lyric number="1">
          <syllabic>single</syllabic>
          <text>take</text>
          </lyric>
        <lyric number="2">
          <syllabic>end</syllabic>
          <text font-style="italic">vons</text>
          </lyric>
        </note>
      <note default-x="87.57" default-y="-20.00">
        <pitch>
          <step>B</step>
          <alter>-1</alter>
          <octave>4</octave>
          </pitch>
        <duration>1</duration>
        <voice>1</voice>
        <type>quarter</type>
        <stem>down</stem>
        <lyric number="1">
          <syllabic>single</syllabic>
          <text>my</text>
          </lyric>
        <lyric number="2">
          <syllabic>single</syllabic>
          <text font-style="italic">la</text>
          </lyric>
        </note>
      </measure>
    <measure number="26" width="154.84">
      <harmony print-frame="no">
        <root>
          <root-step>B</root-step>
          <root-alter>-1</root-alter>
          </root>
        <kind use-symbols="yes">diminished</kind>
        </harmony>
      <note default-x="23.86" default-y="-25.00">
        <pitch>
          <step>A</step>
          <octave>4</octave>
          </pitch>
        <duration>2</duration>
        <voice>1</voice>
        <type>half</type>
        <stem>up</stem>
        <lyric number="1">
          <syllabic>single</syllabic>
          <text>hand</text>
          </lyric>
        <lyric number="2">
          <syllabic>single</syllabic>
          <text font-style="italic">joie,</text>
          </lyric>
        </note>
      <note default-x="81.57" default-y="-30.00">
        <pitch>
          <step>G</step>
          <octave>4</octave>
          </pitch>
        <duration>1</duration>
        <voice>1</voice>
        <type>quarter</type>
        <stem>up</stem>
        <lyric number="1">
          <syllabic>single</syllabic>
          <text>with</text>
          </lyric>
        <lyric number="2">
          <syllabic>begin</syllabic>
          <text font-style="italic">res</text>
          </lyric>
        </note>
      <note default-x="117.41" default-y="-40.00">
        <pitch>
          <step>E</step>
          <octave>4</octave>
          </pitch>
        <duration>1</duration>
        <voice>1</voice>
        <type>quarter</type>
        <stem>up</stem>
        <lyric number="1">
          <syllabic>single</syllabic>
          <text>a</text>
          </lyric>
        <lyric number="2">
          <syllabic>end</syllabic>
          <text font-style="italic">te</text>
          </lyric>
        </note>
      </measure>
    <measure number="27" width="133.68">
      <harmony print-frame="no">
        <root>
          <root-step>A</root-step>
          </root>
        <kind text="mi7">minor-seventh</kind>
        </harmony>
      <note default-x="23.56" default-y="-30.00">
        <pitch>
          <step>G</step>
          <octave>4</octave>
          </pitch>
        <duration>2</duration>
        <voice>1</voice>
        <type>half</type>
        <stem>up</stem>
        <lyric number="1">
          <syllabic>begin</syllabic>
          <text>fer</text>
          </lyric>
        <lyric number="2">
          <syllabic>single</syllabic>
          <text font-style="italic">dans</text>
          </lyric>
        </note>
      <note default-x="77.63" default-y="-40.00">
        <pitch>
          <step>E</step>
          <octave>4</octave>
          </pitch>
        <duration>2</duration>
        <voice>1</voice>
        <type>half</type>
        <stem>up</stem>
        <lyric number="1">
          <syllabic>end</syllabic>
          <text>vent</text>
          </lyric>
        <lyric number="2">
          <syllabic>single</syllabic>
          <text font-style="italic">mes</text>
          </lyric>
        </note>
      </measure>
    <measure number="28" width="157.79">
      <harmony print-frame="no">
        <root>
          <root-step>E</root-step>
          </root>
        <kind>major</kind>
        </harmony>
      <note default-x="32.84" default-y="-40.00">
        <pitch>
          <step>E</step>
          <octave>4</octave>
          </pitch>
        <duration>3</duration>
        <voice>1</voice>
        <type>half</type>
        <dot/>
        <stem>up</stem>
        <lyric number="1">
          <syllabic>single</syllabic>
          <text>prayer</text>
          </lyric>
        <lyric number="2">
          <syllabic>single</syllabic>
          <text font-style="italic">bras,</text>
          </lyric>
        </note>
      <harmony print-frame="no">
        <root>
          <root-step>A</root-step>
          <root-alter>-1</root-alter>
          </root>
        <kind text="mi6">minor-sixth</kind>
        </harmony>
      <note default-x="114.52" default-y="-40.00">
        <pitch>
          <step>E</step>
          <alter>-1</alter>
          <octave>4</octave>
          </pitch>
        <duration>1</duration>
        <voice>1</voice>
        <type>quarter</type>
        <accidental>flat</accidental>
        <stem>up</stem>
        <lyric number="1">
          <syllabic>single</syllabic>
          <text>That</text>
          </lyric>
        <lyric number="2">
          <syllabic>single</syllabic>
          <text font-style="italic">Que</text>
          </lyric>
        </note>
      </measure>
    <measure number="29" width="130.89">
      <harmony print-frame="no">
        <root>
          <root-step>G</root-step>
          </root>
        <kind text="mi7">minor-seventh</kind>
        </harmony>
      <note default-x="22.71" default-y="-45.00">
        <pitch>
          <step>D</step>
          <octave>4</octave>
          </pitch>
        <duration>2</duration>
        <voice>1</voice>
        <type>half</type>
        <stem>up</stem>
        <lyric number="1">
          <syllabic>single</syllabic>
          <text>we</text>
          </lyric>
        <lyric number="2">
          <syllabic>single</syllabic>
          <text font-style="italic">nous</text>
          </lyric>
        </note>
      <note default-x="75.81" default-y="-20.00">
        <pitch>
          <step>B</step>
          <alter>-1</alter>
          <octave>4</octave>
          </pitch>
        <duration>2</duration>
        <voice>1</voice>
        <type>half</type>
        <stem>down</stem>
        <lyric number="1">
          <syllabic>single</syllabic>
          <text>may</text>
          </lyric>
        <lyric number="2">
          <syllabic>begin</syllabic>
          <text font-style="italic">vi</text>
          </lyric>
        </note>
      </measure>
    <measure number="30" width="134.86">
      <note default-x="24.84" default-y="-45.00">
        <pitch>
          <step>D</step>
          <octave>4</octave>
          </pitch>
        <duration>3</duration>
        <voice>1</voice>
        <type>half</type>
        <dot/>
        <stem>up</stem>
        <lyric number="1">
          <syllabic>single</syllabic>
          <text>live</text>
          </lyric>
        <lyric number="2">
          <syllabic>end</syllabic>
          <text font-style="italic">vions</text>
          </lyric>
        </note>
      <harmony print-frame="no">
        <root>
          <root-step>E</root-step>
          <root-alter>-1</root-alter>
          </root>
        <kind>major</kind>
        </harmony>
      <note default-x="96.65" default-y="-40.00">
        <pitch>
          <step>E</step>
          <alter>-1</alter>
          <octave>4</octave>
          </pitch>
        <duration>1</duration>
        <voice>1</voice>
        <type>quarter</type>
        <accidental>flat</accidental>
        <stem>up</stem>
        <lyric number="1">
          <syllabic>single</syllabic>
          <text>and</text>
          </lyric>
        <lyric number="2">
          <syllabic>single</syllabic>
          <text font-style="italic">un</text>
          </lyric>
        </note>
      </measure>
    <measure number="31" width="171.28">
      <print new-system="yes">
        <system-layout>
          <system-margins>
            <left-margin>-0.00</left-margin>
            <right-margin>-0.00</right-margin>
            </system-margins>
          <system-distance>166.46</system-distance>
          </system-layout>
        </print>
      <harmony print-frame="no">
        <root>
          <root-step>A</root-step>
          </root>
        <kind text="mi7">minor-seventh</kind>
        </harmony>
      <note default-x="74.67" default-y="-40.00">
        <pitch>
          <step>E</step>
          <octave>4</octave>
          </pitch>
        <duration>2</duration>
        <voice>1</voice>
        <type>half</type>
        <accidental>natural</accidental>
        <stem>up</stem>
        <lyric number="1">
          <syllabic>single</syllabic>
          <text>we</text>
          </lyric>
        <lyric number="2">
          <syllabic>single</syllabic>
          <text font-style="italic">bel</text>
          </lyric>
        </note>
      <note default-x="121.98" default-y="-15.00">
        <pitch>
          <step>C</step>
          <octave>5</octave>
          </pitch>
        <duration>2</duration>
        <voice>1</voice>
        <type>half</type>
        <stem>down</stem>
        <lyric number="1">
          <syllabic>single</syllabic>
          <text>may</text>
          </lyric>
        <lyric number="2">
          <syllabic>begin</syllabic>
          <text font-style="italic">a</text>
          </lyric>
        </note>
      </measure>
    <measure number="32" width="173.99">
      <harmony print-frame="no">
        <root>
          <root-step>D</root-step>
          </root>
        <kind text="9">dominant-ninth</kind>
        </harmony>
      <harmony print-frame="no">
        <root>
          <root-step>D</root-step>
          </root>
        <kind text="9">dominant-ninth</kind>
        <degree>
          <degree-value>5</degree-value>
          <degree-alter>-1</degree-alter>
          <degree-type>alter</degree-type>
          </degree>
        <offset>2</offset>
        </harmony>
      <note default-x="27.06" default-y="-40.00">
        <pitch>
          <step>E</step>
          <octave>4</octave>
          </pitch>
        <duration>3</duration>
        <voice>1</voice>
        <type>half</type>
        <dot/>
        <stem>up</stem>
        <lyric number="1">
          <syllabic>single</syllabic>
          <text>share</text>
          </lyric>
        <lyric number="2">
          <syllabic>end</syllabic>
          <text font-style="italic">mour,</text>
          </lyric>
        </note>
      <harmony print-frame="no">
        <root>
          <root-step>D</root-step>
          </root>
        <kind text="7">dominant</kind>
        <degree>
          <degree-value>9</degree-value>
          <degree-alter>-1</degree-alter>
          <degree-type>add</degree-type>
          </degree>
        </harmony>
      <note default-x="136.77" default-y="-40.00">
        <pitch>
          <step>E</step>
          <alter>-1</alter>
          <octave>4</octave>
          </pitch>
        <duration>1</duration>
        <voice>1</voice>
        <type>quarter</type>
        <accidental>flat</accidental>
        <stem>up</stem>
        <lyric number="1">
          <syllabic>single</syllabic>
          <text>a</text>
          </lyric>
        <lyric number="2">
          <syllabic>begin</syllabic>
          <text font-style="italic">Af</text>
          </lyric>
        </note>
      </measure>
    <measure number="33" width="115.88">
      <harmony print-frame="no">
        <root>
          <root-step>G</root-step>
          </root>
        <kind text="mi7">minor-seventh</kind>
        </harmony>
      <note default-x="24.99" default-y="-45.00">
        <pitch>
          <step>D</step>
          <octave>4</octave>
          </pitch>
        <duration>2</duration>
        <voice>1</voice>
        <type>half</type>
        <stem>up</stem>
        <lyric number="1">
          <syllabic>single</syllabic>
          <text>love</text>
          </lyric>
        <lyric number="2">
          <syllabic>end</syllabic>
          <text font-style="italic">faire</text>
          </lyric>
        </note>
      <note default-x="69.44" default-y="-20.00">
        <pitch>
          <step>B</step>
          <alter>-1</alter>
          <octave>4</octave>
          </pitch>
        <duration>2</duration>
        <voice>1</voice>
        <type>half</type>
        <stem>down</stem>
        <lyric number="1">
          <syllabic>begin</syllabic>
          <text>af</text>
          </lyric>
        <lyric number="2">
          <syllabic>single</syllabic>
          <text font-style="italic">de</text>
          </lyric>
        </note>
      </measure>
    <measure number="34" width="173.59">
      <note default-x="25.17" default-y="-45.00">
        <pitch>
          <step>D</step>
          <octave>4</octave>
          </pitch>
        <duration>2</duration>
        <voice>1</voice>
        <type>half</type>
        <stem>up</stem>
        <lyric number="1">
          <syllabic>end</syllabic>
          <text>fair</text>
          </lyric>
        <lyric number="2">
          <syllabic>single</syllabic>
          <text font-style="italic">cœur,</text>
          </lyric>
        </note>
      <note default-x="90.64" default-y="-45.00">
        <pitch>
          <step>D</step>
          <octave>4</octave>
          </pitch>
        <duration>1</duration>
        <voice>1</voice>
        <type>quarter</type>
        <stem>up</stem>
        <lyric number="1">
          <syllabic>single</syllabic>
          <text>to</text>
          </lyric>
        <lyric number="2">
          <syllabic>single</syllabic>
          <text font-style="italic">qu'on</text>
          </lyric>
        </note>
      <harmony print-frame="no">
        <root>
          <root-step>G</root-step>
          </root>
        <kind text="mi6">minor-sixth</kind>
        </harmony>
      <note default-x="131.31" default-y="-40.00">
        <pitch>
          <step>E</step>
          <octave>4</octave>
          </pitch>
        <duration>1</duration>
        <voice>1</voice>
        <type>quarter</type>
        <stem>up</stem>
        <lyric number="1">
          <syllabic>begin</syllabic>
          <text>re</text>
          </lyric>
        <lyric number="2">
          <syllabic>begin</syllabic>
          <text font-style="italic">n'ou</text>
          </lyric>
        </note>
      </measure>
    <measure number="35" width="89.48">
      <harmony print-frame="no">
        <root>
          <root-step>C</root-step>
          </root>
        <kind text="7">dominant</kind>
        <degree>
          <degree-value>9</degree-value>
          <degree-alter>-1</degree-alter>
          <degree-type>add</degree-type>
          </degree>
        </harmony>
      <note default-x="20.33" default-y="-30.00">
        <pitch>
          <step>G</step>
          <octave>4</octave>
          </pitch>
        <duration>4</duration>
        <voice>1</voice>
        <type>whole</type>
        <lyric number="1">
          <syllabic>middle</syllabic>
          <text>mem</text>
          </lyric>
        <lyric number="2">
          <syllabic>end</syllabic>
          <text font-style="italic">blie</text>
          </lyric>
        </note>
      </measure>
    <measure number="36" width="120.06">
      <barline location="left">
        <ending number="1" type="start"/>
        </barline>
      <harmony print-frame="no">
        <root>
          <root-step>F</root-step>
          </root>
        <kind>major</kind>
        </harmony>
      <note default-x="20.95" default-y="-35.00">
        <pitch>
          <step>F</step>
          <octave>4</octave>
          </pitch>
        <duration>3</duration>
        <voice>1</voice>
        <type>half</type>
        <dot/>
        <stem>up</stem>
        <lyric number="1">
          <syllabic>end</syllabic>
          <text>ber.</text>
          </lyric>
        <lyric number="2">
          <syllabic>single</syllabic>
          <text font-style="italic">pas.</text>
          </lyric>
        </note>
      <note default-x="85.55" default-y="-50.00">
        <pitch>
          <step>C</step>
          <octave>4</octave>
          </pitch>
        <duration>1</duration>
        <voice>1</voice>
        <type>quarter</type>
        <stem>up</stem>
        <lyric number="1">
          <syllabic>single</syllabic>
          <text>Our</text>
          </lyric>
        <lyric number="2">
          <syllabic>single</syllabic>
          <text font-style="italic">Ce</text>
          </lyric>
        </note>
      <barline location="right">
        <ending number="1" type="stop"/>
        </barline>
      </measure>
    <measure number="37" width="94.75">
      <barline location="left">
        <ending number="2" type="start"/>
        </barline>
      <harmony print-frame="no">
        <root>
          <root-step>F</root-step>
          </root>
        <kind>major</kind>
        </harmony>
      <note default-x="12.00" default-y="-35.00">
        <pitch>
          <step>F</step>
          <octave>4</octave>
          </pitch>
        <duration>4</duration>
        <tie type="start"/>
        <voice>1</voice>
        <type>whole</type>
        <notations>
          <tied type="start"/>
          </notations>
        <lyric number="1">
          <syllabic>single</syllabic>
          <text>ber.</text>
          <extend/>
          </lyric>
        <lyric number="2">
          <syllabic>single</syllabic>
          <text font-style="italic">pas.</text>
          <extend/>
          </lyric>
        </note>
      </measure>
    <measure number="38" width="80.56">
      <harmony print-frame="no">
        <root>
          <root-step>F</root-step>
          </root>
        <kind use-symbols="yes">diminished</kind>
        </harmony>
      <note default-x="12.00" default-y="-35.00">
        <pitch>
          <step>F</step>
          <octave>4</octave>
          </pitch>
        <duration>4</duration>
        <tie type="stop"/>
        <tie type="start"/>
        <voice>1</voice>
        <type>whole</type>
        <notations>
          <tied type="stop"/>
          <tied type="start"/>
          </notations>
        </note>
      </measure>
    <measure number="39" width="81.39">
      <harmony print-frame="no">
        <root>
          <root-step>G</root-step>
          </root>
        <kind text="mi7">minor-seventh</kind>
        </harmony>
      <note default-x="12.00" default-y="-35.00">
        <pitch>
          <step>F</step>
          <octave>4</octave>
          </pitch>
        <duration>4</duration>
        <tie type="stop"/>
        <tie type="start"/>
        <voice>1</voice>
        <type>whole</type>
        <notations>
          <tied type="stop"/>
          <tied type="start"/>
          </notations>
        </note>
      </measure>
    <measure number="40" width="86.89">
      <harmony print-frame="no">
        <root>
          <root-step>F</root-step>
          </root>
        <kind>major</kind>
        </harmony>
      <note default-x="12.00" default-y="-35.00">
        <pitch>
          <step>F</step>
          <octave>4</octave>
          </pitch>
        <duration>4</duration>
        <tie type="stop"/>
        <voice>1</voice>
        <type>whole</type>
        <notations>
          <tied type="stop"/>
          </notations>
        </note>
      <barline location="right">
        <bar-style>light-heavy</bar-style>
        <ending number="2" type="stop"/>
        </barline>
      </measure>
    </part>
  </score-partwise>
